<?xml version="1.0" encoding="UTF-8" standalone="no"?>
<!DOCTYPE svg PUBLIC "-//W3C//DTD SVG 1.1//EN"
 "http://www.w3.org/Graphics/SVG/1.1/DTD/svg11.dtd">
<!-- Generated by graphviz version 2.43.0 (0)
 -->
<!-- Title: %3 Pages: 1 -->
<svg width="515pt" height="684pt"
 viewBox="0.00 0.00 514.50 684.00" xmlns="http://www.w3.org/2000/svg" xmlns:xlink="http://www.w3.org/1999/xlink">
<g id="graph0" class="graph" transform="scale(1 1) rotate(0) translate(4 680)">
<title>%3</title>
<polygon fill="white" stroke="transparent" points="-4,4 -4,-680 510.5,-680 510.5,4 -4,4"/>
<!-- _1 -->
<g id="node1" class="node">
<title>_1</title>
<g id="a_node1"><a xlink:href="0001-record-architecture-decisions.html" xlink:title="1. Record architecture decisions">
<text text-anchor="middle" x="215.5" y="-654.3" font-family="Times,serif" font-size="14.00">1. Record architecture decisions</text>
</a>
</g>
</g>
<!-- _2 -->
<g id="node2" class="node">
<title>_2</title>
<g id="a_node2"><a xlink:href="0002-keep-profiling-in-the-current-hr-system.html" xlink:title="2. Keep profiling in the current HR System">
<text text-anchor="middle" x="215.5" y="-581.3" font-family="Times,serif" font-size="14.00">2. Keep profiling in the current HR System</text>
</a>
</g>
</g>
<!-- _1&#45;&gt;_2 -->
<g id="edge1" class="edge">
<title>_1&#45;&gt;_2</title>
<path fill="none" stroke="black" stroke-dasharray="1,5" d="M215.5,-639.81C215.5,-631.79 215.5,-622.05 215.5,-613.07"/>
<polygon fill="black" stroke="black" points="219,-613.03 215.5,-603.03 212,-613.03 219,-613.03"/>
</g>
<!-- _3 -->
<g id="node3" class="node">
<title>_3</title>
<g id="a_node3"><a xlink:href="0003-use-ms-0365-for-scheduling.html" xlink:title="3. Use MS&#45;0365 for scheduling">
<text text-anchor="middle" x="215.5" y="-508.3" font-family="Times,serif" font-size="14.00">3. Use MS&#45;0365 for scheduling</text>
</a>
</g>
</g>
<!-- _2&#45;&gt;_3 -->
<g id="edge2" class="edge">
<title>_2&#45;&gt;_3</title>
<path fill="none" stroke="black" stroke-dasharray="1,5" d="M215.5,-566.81C215.5,-558.79 215.5,-549.05 215.5,-540.07"/>
<polygon fill="black" stroke="black" points="219,-540.03 215.5,-530.03 212,-540.03 219,-540.03"/>
</g>
<!-- _4 -->
<g id="node4" class="node">
<title>_4</title>
<g id="a_node4"><a xlink:href="0004-decouple-hr.html" xlink:title="4. decouple HR++">
<text text-anchor="middle" x="215.5" y="-435.3" font-family="Times,serif" font-size="14.00">4. decouple HR++</text>
</a>
</g>
</g>
<!-- _3&#45;&gt;_4 -->
<g id="edge3" class="edge">
<title>_3&#45;&gt;_4</title>
<path fill="none" stroke="black" stroke-dasharray="1,5" d="M215.5,-493.81C215.5,-485.79 215.5,-476.05 215.5,-467.07"/>
<polygon fill="black" stroke="black" points="219,-467.03 215.5,-457.03 212,-467.03 219,-467.03"/>
</g>
<!-- _4&#45;&gt;_2 -->
<g id="edge9" class="edge">
<title>_4&#45;&gt;_2</title>
<path fill="none" stroke="black" d="M274.16,-457.1C291.84,-465.3 309.25,-477.13 319.5,-494 327.81,-507.67 327.81,-516.33 319.5,-530 311.01,-543.97 297.61,-554.49 283.22,-562.34"/>
<polygon fill="black" stroke="black" points="281.52,-559.28 274.16,-566.9 284.67,-565.53 281.52,-559.28"/>
<text text-anchor="middle" x="343.5" y="-508.3" font-family="Times,serif" font-size="14.00">details</text>
</g>
<!-- _5 -->
<g id="node5" class="node">
<title>_5</title>
<g id="a_node5"><a xlink:href="0005-running-and-enrolling-are-deployed-together.html" xlink:title="5. Running and enrolling are deployed together">
<text text-anchor="middle" x="215.5" y="-362.3" font-family="Times,serif" font-size="14.00">5. Running and enrolling are deployed together</text>
</a>
</g>
</g>
<!-- _4&#45;&gt;_5 -->
<g id="edge4" class="edge">
<title>_4&#45;&gt;_5</title>
<path fill="none" stroke="black" stroke-dasharray="1,5" d="M215.5,-420.81C215.5,-412.79 215.5,-403.05 215.5,-394.07"/>
<polygon fill="black" stroke="black" points="219,-394.03 215.5,-384.03 212,-394.03 219,-394.03"/>
</g>
<!-- _6 -->
<g id="node6" class="node">
<title>_6</title>
<g id="a_node6"><a xlink:href="0006-append-only-store-for-attendenace.html" xlink:title="6. Append only store for attendenace">
<text text-anchor="middle" x="215.5" y="-275.3" font-family="Times,serif" font-size="14.00">6. Append only store for attendenace</text>
</a>
</g>
</g>
<!-- _5&#45;&gt;_6 -->
<g id="edge5" class="edge">
<title>_5&#45;&gt;_6</title>
<path fill="none" stroke="black" stroke-dasharray="1,5" d="M215.5,-347.8C215.5,-336.16 215.5,-320.55 215.5,-307.24"/>
<polygon fill="black" stroke="black" points="219,-307.18 215.5,-297.18 212,-307.18 219,-307.18"/>
</g>
<!-- _6&#45;&gt;_5 -->
<g id="edge10" class="edge">
<title>_6&#45;&gt;_5</title>
<path fill="none" stroke="black" d="M224.51,-297.42C228.4,-306.95 231.61,-319.02 229.5,-330 228.97,-332.74 228.23,-335.53 227.37,-338.29"/>
<polygon fill="black" stroke="black" points="223.98,-337.35 223.83,-347.95 230.55,-339.76 223.98,-337.35"/>
<text text-anchor="middle" x="248.5" y="-318.8" font-family="Times,serif" font-size="14.00">details</text>
</g>
<!-- _7 -->
<g id="node7" class="node">
<title>_7</title>
<g id="a_node7"><a xlink:href="0007-use-container-instances-for-back-end-components.html" xlink:title="7. use container instances for back end components">
<text text-anchor="middle" x="215.5" y="-188.3" font-family="Times,serif" font-size="14.00">7. use container instances for back end components</text>
</a>
</g>
</g>
<!-- _6&#45;&gt;_7 -->
<g id="edge6" class="edge">
<title>_6&#45;&gt;_7</title>
<path fill="none" stroke="black" stroke-dasharray="1,5" d="M215.5,-260.8C215.5,-249.16 215.5,-233.55 215.5,-220.24"/>
<polygon fill="black" stroke="black" points="219,-220.18 215.5,-210.18 212,-220.18 219,-220.18"/>
</g>
<!-- _8 -->
<g id="node8" class="node">
<title>_8</title>
<g id="a_node8"><a xlink:href="0008-separate-course-development-from-runnning-and-enrolling.html" xlink:title="8. separate deployment of course development from runnning and enrolling">
<text text-anchor="middle" x="215.5" y="-101.3" font-family="Times,serif" font-size="14.00">8. separate deployment of course development from runnning and enrolling</text>
</a>
</g>
</g>
<!-- _7&#45;&gt;_8 -->
<g id="edge7" class="edge">
<title>_7&#45;&gt;_8</title>
<path fill="none" stroke="black" stroke-dasharray="1,5" d="M215.5,-173.8C215.5,-162.16 215.5,-146.55 215.5,-133.24"/>
<polygon fill="black" stroke="black" points="219,-133.18 215.5,-123.18 212,-133.18 219,-133.18"/>
</g>
<!-- _7&#45;&gt;_8 -->
<g id="edge11" class="edge">
<title>_7&#45;&gt;_8</title>
<path fill="none" stroke="black" d="M224.51,-173.58C228.4,-164.05 231.61,-151.98 229.5,-141 228.97,-138.26 228.23,-135.47 227.37,-132.71"/>
<polygon fill="black" stroke="black" points="230.55,-131.24 223.83,-123.05 223.98,-133.65 230.55,-131.24"/>
<text text-anchor="middle" x="248.5" y="-144.8" font-family="Times,serif" font-size="14.00">details</text>
</g>
<!-- _9 -->
<g id="node9" class="node">
<title>_9</title>
<g id="a_node9"><a xlink:href="0009-use-events-for-communicating-between-components.html" xlink:title="9. use events for communicating between components">
<text text-anchor="middle" x="215.5" y="-14.3" font-family="Times,serif" font-size="14.00">9. use events for communicating between components</text>
</a>
</g>
</g>
<!-- _8&#45;&gt;_9 -->
<g id="edge8" class="edge">
<title>_8&#45;&gt;_9</title>
<path fill="none" stroke="black" stroke-dasharray="1,5" d="M215.5,-86.8C215.5,-75.16 215.5,-59.55 215.5,-46.24"/>
<polygon fill="black" stroke="black" points="219,-46.18 215.5,-36.18 212,-46.18 219,-46.18"/>
</g>
<!-- _9&#45;&gt;_4 -->
<g id="edge13" class="edge">
<title>_9&#45;&gt;_4</title>
<path fill="none" stroke="black" d="M310.82,-36.05C364.68,-47.84 424.38,-65.29 440.5,-87 521.86,-196.58 455.98,-284.57 362.5,-384 342.18,-405.61 312.48,-418.61 285.09,-426.41"/>
<polygon fill="black" stroke="black" points="283.89,-423.11 275.12,-429.06 285.69,-429.87 283.89,-423.11"/>
<text text-anchor="middle" x="488.5" y="-231.8" font-family="Times,serif" font-size="14.00">details</text>
</g>
<!-- _9&#45;&gt;_8 -->
<g id="edge12" class="edge">
<title>_9&#45;&gt;_8</title>
<path fill="none" stroke="black" d="M223.83,-36.05C226.14,-41.64 228.34,-47.96 229.5,-54 230.95,-61.55 229.89,-69.61 227.82,-77.01"/>
<polygon fill="black" stroke="black" points="224.47,-75.99 224.51,-86.58 231.08,-78.27 224.47,-75.99"/>
<text text-anchor="middle" x="248.5" y="-57.8" font-family="Times,serif" font-size="14.00">details</text>
</g>
</g>
</svg>
