<?xml version="1.0" encoding="UTF-8" standalone="no"?>
<!DOCTYPE svg PUBLIC "-//W3C//DTD SVG 1.1//EN"
 "http://www.w3.org/Graphics/SVG/1.1/DTD/svg11.dtd">
<!-- Generated by graphviz version 2.43.0 (0)
 -->
<!-- Title: %3 Pages: 1 -->
<svg width="306pt" height="496pt"
 viewBox="0.00 0.00 306.00 496.00" xmlns="http://www.w3.org/2000/svg" xmlns:xlink="http://www.w3.org/1999/xlink">
<g id="graph0" class="graph" transform="scale(1 1) rotate(0) translate(4 492)">
<title>%3</title>
<polygon fill="white" stroke="transparent" points="-4,4 -4,-492 302,-492 302,4 -4,4"/>
<!-- _1 -->
<g id="node1" class="node">
<title>_1</title>
<g id="a_node1"><a xlink:href="0001-record-architecture-decisions.html" xlink:title="1. Record architecture decisions">
<text text-anchor="middle" x="149" y="-466.3" font-family="Times,serif" font-size="14.00">1. Record architecture decisions</text>
</a>
</g>
</g>
<!-- _2 -->
<g id="node2" class="node">
<title>_2</title>
<g id="a_node2"><a xlink:href="0002-keep-profiling-in-the-current-hr-system.html" xlink:title="2. Keep profiling in the current HR System">
<text text-anchor="middle" x="149" y="-393.3" font-family="Times,serif" font-size="14.00">2. Keep profiling in the current HR System</text>
</a>
</g>
</g>
<!-- _1&#45;&gt;_2 -->
<g id="edge1" class="edge">
<title>_1&#45;&gt;_2</title>
<path fill="none" stroke="black" stroke-dasharray="1,5" d="M149,-451.81C149,-443.79 149,-434.05 149,-425.07"/>
<polygon fill="black" stroke="black" points="152.5,-425.03 149,-415.03 145.5,-425.03 152.5,-425.03"/>
</g>
<!-- _3 -->
<g id="node3" class="node">
<title>_3</title>
<g id="a_node3"><a xlink:href="0003-use-ms-0365-for-scheduling.html" xlink:title="3. Use MS&#45;0365 for scheduling">
<text text-anchor="middle" x="149" y="-320.3" font-family="Times,serif" font-size="14.00">3. Use MS&#45;0365 for scheduling</text>
</a>
</g>
</g>
<!-- _2&#45;&gt;_3 -->
<g id="edge2" class="edge">
<title>_2&#45;&gt;_3</title>
<path fill="none" stroke="black" stroke-dasharray="1,5" d="M149,-378.81C149,-370.79 149,-361.05 149,-352.07"/>
<polygon fill="black" stroke="black" points="152.5,-352.03 149,-342.03 145.5,-352.03 152.5,-352.03"/>
</g>
<!-- _4 -->
<g id="node4" class="node">
<title>_4</title>
<g id="a_node4"><a xlink:href="0004-decouple-hr.html" xlink:title="4. decouple HR++">
<text text-anchor="middle" x="149" y="-247.3" font-family="Times,serif" font-size="14.00">4. decouple HR++</text>
</a>
</g>
</g>
<!-- _3&#45;&gt;_4 -->
<g id="edge3" class="edge">
<title>_3&#45;&gt;_4</title>
<path fill="none" stroke="black" stroke-dasharray="1,5" d="M149,-305.81C149,-297.79 149,-288.05 149,-279.07"/>
<polygon fill="black" stroke="black" points="152.5,-279.03 149,-269.03 145.5,-279.03 152.5,-279.03"/>
</g>
<!-- _4&#45;&gt;_2 -->
<g id="edge7" class="edge">
<title>_4&#45;&gt;_2</title>
<path fill="none" stroke="black" d="M207.66,-269.1C225.34,-277.3 242.75,-289.13 253,-306 261.31,-319.67 261.31,-328.33 253,-342 244.51,-355.97 231.11,-366.49 216.72,-374.34"/>
<polygon fill="black" stroke="black" points="215.02,-371.28 207.66,-378.9 218.17,-377.53 215.02,-371.28"/>
<text text-anchor="middle" x="277" y="-320.3" font-family="Times,serif" font-size="14.00">details</text>
</g>
<!-- _5 -->
<g id="node5" class="node">
<title>_5</title>
<g id="a_node5"><a xlink:href="0005-running-and-enrolling-are-deployed-together.html" xlink:title="5. Running and enrolling are deployed together">
<text text-anchor="middle" x="149" y="-174.3" font-family="Times,serif" font-size="14.00">5. Running and enrolling are deployed together</text>
</a>
</g>
</g>
<!-- _4&#45;&gt;_5 -->
<g id="edge4" class="edge">
<title>_4&#45;&gt;_5</title>
<path fill="none" stroke="black" stroke-dasharray="1,5" d="M149,-232.81C149,-224.79 149,-215.05 149,-206.07"/>
<polygon fill="black" stroke="black" points="152.5,-206.03 149,-196.03 145.5,-206.03 152.5,-206.03"/>
</g>
<!-- _6 -->
<g id="node6" class="node">
<title>_6</title>
<g id="a_node6"><a xlink:href="0006-append-only-store-for-attendenace.html" xlink:title="6. Append only store for attendenace">
<text text-anchor="middle" x="149" y="-87.3" font-family="Times,serif" font-size="14.00">6. Append only store for attendenace</text>
</a>
</g>
</g>
<!-- _5&#45;&gt;_6 -->
<g id="edge5" class="edge">
<title>_5&#45;&gt;_6</title>
<path fill="none" stroke="black" stroke-dasharray="1,5" d="M149,-159.8C149,-148.16 149,-132.55 149,-119.24"/>
<polygon fill="black" stroke="black" points="152.5,-119.18 149,-109.18 145.5,-119.18 152.5,-119.18"/>
</g>
<!-- _6&#45;&gt;_5 -->
<g id="edge8" class="edge">
<title>_6&#45;&gt;_5</title>
<path fill="none" stroke="black" d="M155.55,-109.2C157.37,-114.79 159.09,-121.08 160,-127 161.17,-134.61 160.29,-142.8 158.61,-150.29"/>
<polygon fill="black" stroke="black" points="155.22,-149.41 155.94,-159.98 161.97,-151.26 155.22,-149.41"/>
<text text-anchor="middle" x="179" y="-130.8" font-family="Times,serif" font-size="14.00">details</text>
</g>
<!-- _7 -->
<g id="node7" class="node">
<title>_7</title>
<g id="a_node7"><a xlink:href="0007-use-container-instances-for-back-end-components.html" xlink:title="7. use container instances for back end components">
<text text-anchor="middle" x="149" y="-14.3" font-family="Times,serif" font-size="14.00">7. use container instances for back end components</text>
</a>
</g>
</g>
<!-- _6&#45;&gt;_7 -->
<g id="edge6" class="edge">
<title>_6&#45;&gt;_7</title>
<path fill="none" stroke="black" stroke-dasharray="1,5" d="M149,-72.81C149,-64.79 149,-55.05 149,-46.07"/>
<polygon fill="black" stroke="black" points="152.5,-46.03 149,-36.03 145.5,-46.03 152.5,-46.03"/>
</g>
</g>
</svg>
